<svg width="20" height="16" viewBox="0 0 20 16" fill="none" xmlns="http://www.w3.org/2000/svg">
<path id="Vector" d="M0.502829 15.9459C0.584829 15.9729 0.666832 15.9999 0.775832 15.9999C1.02083 15.9999 1.26683 15.8659 1.40283 15.6249C3.12083 12.4139 5.05683 9.76491 11.0018 9.95191V12.3599C11.0086 12.5384 11.0661 12.7113 11.1676 12.8583C11.2691 13.0053 11.4103 13.1203 11.5748 13.1899C11.8748 13.3239 12.2018 13.2439 12.4478 13.0029L19.7288 6.98191C19.9198 6.84791 20.0018 6.63392 20.0018 6.39292C20.0018 6.15192 19.8928 5.96491 19.7018 5.80391L12.4208 0.157916C12.1758 -0.0290838 11.8208 -0.0560846 11.4938 0.103915C11.1938 0.264915 11.0028 0.531908 11.0028 0.852908V3.28791C1.34983 4.35791 0.476832 11.2349 0.122832 14.2049C0.0678317 14.5529 0.0438344 14.7299 0.00683437 15.1359C-0.0301656 15.5419 0.122828 15.8099 0.503828 15.9439L0.502829 15.9459ZM11.3288 4.3329C11.6828 4.3059 12.0928 3.93191 12.0928 3.52991V1.28191L18.7188 6.44591L12.0928 11.9319V9.68392C12.0928 9.28292 11.7108 8.90791 11.3018 8.88091C5.54783 8.63991 3.06683 10.8339 1.29383 13.5909C1.72983 10.4869 3.01183 5.1619 11.3288 4.3329Z" fill="#1A1A1A"/>
</svg>
