<svg width="171" height="95" viewBox="0 0 171 95" fill="none" xmlns="http://www.w3.org/2000/svg">
<g id="78639765.cms" clip-path="url(#clip0_1_5739)">
<g id="Group">
<g id="Group_2">
<g id="Group_3">
<g id="Group_4">
<path id="Vector" d="M8 0H171V95H8C3.582 95 0 91.418 0 87V8C0 3.582 3.582 0 8 0Z" fill="white"/>
<g id="Mask group">
<mask id="mask0_1_5739" style="mask-type:luminance" maskUnits="userSpaceOnUse" x="0" y="0" width="171" height="95">
<g id="Group_5">
<path id="Vector_2" d="M8 0H171V95H8C3.582 95 0 91.418 0 87V8C0 3.582 3.582 0 8 0Z" fill="white"/>
</g>
</mask>
<g mask="url(#mask0_1_5739)">
<g id="Group_6">
<g id="Group_7">
<path id="Vector_3" d="M150.462 11H80.538C79.689 11 79 11.688 79 12.536V129.464C79 130.312 79.689 131 80.538 131H150.462C151.219 131 151.862 130.45 151.979 129.704C151.994 129.624 152 129.544 152 129.464V12.536C151.999 11.688 151.311 11 150.462 11ZM151.385 129.464C151.385 129.974 150.972 130.386 150.462 130.386H80.538C80.028 130.386 79.615 129.973 79.615 129.464V12.536C79.615 12.027 80.029 11.614 80.538 11.614H150.462C150.972 11.614 151.384 12.027 151.385 12.536V129.464Z" fill="#E6E6E6"/>
<path id="Vector_4" d="M86.614 20C86.275 20 86 20.269 86 20.6V45.4C86 45.731 86.275 46 86.614 46H145.386C145.725 46 146 45.731 146 45.4V20.6C146 20.269 145.725 20 145.386 20H86.614Z" fill="#E6E6E6"/>
<path id="Vector_5" d="M62.594 40C62.266 40 62 40.269 62 40.6V65.4C62 65.731 62.266 66 62.594 66H119.406C119.734 66 120 65.731 120 65.4V40.6C120 40.269 119.734 40 119.406 40H62.594Z" fill="#E21B22"/>
<path id="Vector_6" d="M52.9801 100.068C52.8801 100.748 52.6331 101.398 52.2531 101.978C51.7771 102.681 46.3031 116.33 44.6021 121.965C44.2901 123 44.4541 124.001 44.4201 124.347C44.3931 124.635 44.3681 124.922 44.3461 125.207C44.3141 125.563 44.2901 125.918 44.2631 126.271C44.1931 127.206 44.1331 128.189 44.5391 129.039C44.6991 129.375 44.9391 129.664 45.0451 130C44.8861 129.92 44.7401 129.821 44.6091 129.704L39.9601 126.358C39.5811 125.318 39.2891 124.248 39.0861 123.162C38.9691 122.545 38.9131 121.837 39.3111 121.364C39.3341 121.334 39.3581 121.307 39.3851 121.281C39.5151 121.163 39.6601 121.061 39.8171 120.981C39.9601 120.904 40.0991 120.818 40.2301 120.723C40.3291 120.648 40.4181 120.562 40.4951 120.466C40.8781 120.008 41.0151 119.366 41.1291 118.762C41.5791 116.29 45.3861 101.127 45.3151 100.752C45.2351 100.384 43.0741 96.8521 41.5901 96.0671C43.1301 94.8171 44.8851 93.8421 46.7761 93.1871C47.1091 93.0361 47.4781 92.9751 47.8431 93.0101C48.0391 93.0511 48.2261 93.1251 48.3961 93.2281C49.4141 93.7811 50.1941 94.6531 50.9411 95.5241C52.0531 96.8361 53.1671 98.3791 52.9801 100.068Z" fill="#EFB7B9"/>
<path id="Vector_7" d="M50.6759 94.9739C50.5329 96.3039 46.7409 97.4819 41.9449 98.2139C40.7069 98.4039 37.6639 91.0159 36.3369 91.1409C34.7419 91.2909 34.8529 98.9379 33.2749 98.9789C27.9039 99.1189 24.4329 98.5759 23.3109 97.0069C22.7039 96.8619 21.9709 96.5179 22.0009 95.9069C22.0209 95.5569 22.3019 95.2469 22.2999 94.9039C22.2999 94.3049 24.0599 87.7539 25.0989 84.6459C25.3579 83.8739 25.5449 83.0819 25.8369 82.3189C27.1009 78.8789 27.6429 76.2389 29.9509 73.3749C30.3039 72.9729 30.5939 72.5219 30.8119 72.0349C31.0099 71.4519 31.1139 70.8409 31.1179 70.2249L31.2449 68.0709C34.6669 67.9129 37.9899 67.9769 41.3379 68.6899C41.7159 68.6789 42.0319 68.9719 42.0429 69.3449V69.3489C42.1729 70.1369 42.2629 70.9289 42.3149 71.7229C42.3169 71.8989 42.3419 72.0729 42.3909 72.2429C42.4789 72.4559 42.6009 72.6539 42.7529 72.8289C44.6899 75.3329 45.8769 78.3289 46.8149 81.3289C47.7519 84.3289 48.4979 87.4139 49.6749 90.3489C50.0819 91.3599 50.6129 92.4969 50.7199 93.5819C51.1449 93.8919 51.0499 94.5939 50.6759 94.9739Z" fill="#2F2E41"/>
<path id="Vector_8" d="M53.5007 58.984C54.0907 58.49 54.6827 57.993 55.2237 57.447C55.9877 56.645 56.6937 55.79 57.3367 54.888C58.0207 53.964 58.7017 53.017 59.1267 51.948C59.6077 50.724 59.7557 49.332 60.5927 48.316C60.6867 48.184 60.8187 48.082 60.9707 48.023C61.4477 47.875 61.8027 48.467 61.8947 48.957C62.3427 51.357 61.2747 53.751 60.2367 55.964C59.8947 56.694 59.5367 57.443 58.9427 57.995C58.6177 58.271 58.2777 58.529 57.9247 58.769C57.4007 59.191 56.9177 59.662 56.4847 60.175C55.7377 61.015 55.0287 61.885 54.3547 62.785C53.5207 63.893 52.7377 65.055 51.7487 66.033C50.7587 67.011 49.5217 67.807 48.1367 68C48.5327 67.947 48.4027 65.643 48.3607 65.352C48.3007 64.932 48.0087 64.434 48.0007 64.022C47.9887 63.516 48.1967 63.443 48.6177 63.088L53.5007 58.984ZM37.0757 45C37.0757 45 35.7327 51.522 34.1657 52.609C32.5977 53.696 42.6727 55 42.6727 55C42.6727 55 42.8967 49.783 45.5827 47.391C48.2697 45 37.0757 45 37.0757 45Z" fill="#EFB7B9"/>
<path id="Vector_9" d="M46.316 70.8669C46.644 70.9679 46.987 71.0119 47.331 70.9969C48.493 70.9849 49.638 70.7239 50.685 70.2339C50.784 70.1969 50.87 70.1349 50.938 70.0559C51.017 69.8889 51.021 69.6959 50.948 69.5259C50.325 67.0599 51.528 64.2639 50.334 62.0099C49.034 62.4229 47.61 62.8749 46.311 63.2769C46.112 63.3569 45.897 63.3919 45.683 63.3809C45.425 63.3289 45.19 63.2029 45.006 63.0199C43.598 61.8299 42.711 60.1729 41.908 58.5359C41.105 56.8979 40.318 55.2089 39.052 53.8759C37.786 52.5439 36.602 51.8389 34.752 52.0309C34.096 52.1189 33.493 52.4339 33.053 52.9179C32.009 54.0169 31.801 55.6889 32.168 57.1469C32.535 58.6049 33.378 59.8969 34.255 61.1269C35.396 62.7319 36.625 64.3129 38.211 65.5049C39.069 66.1129 39.96 66.6749 40.879 67.1899" fill="#E6E6E6"/>
<path id="Vector_10" d="M42 50C45.866 50 49 46.866 49 43C49 39.134 45.866 36 42 36C38.134 36 35 39.134 35 43C35 46.866 38.134 50 42 50Z" fill="#EFB7B9"/>
<path id="Vector_11" d="M46.529 61.5259C44.487 63.8819 44.056 66.8909 43.639 69.8619C41.588 69.1819 39.315 70.3219 37.192 69.9059C36.126 69.5579 34.998 69.4299 33.878 69.5289C33.093 69.4559 32.314 68.9729 31.565 69.2189C30.32 69.9909 31.532 65.2089 31.458 63.8189C30.806 40.3709 50.239 51.7779 46.529 61.5259Z" fill="#E6E6E6"/>
<path id="Vector_12" d="M56.5005 59.9839C57.0905 59.4889 57.6825 58.9929 58.2235 58.4469C58.9875 57.6449 59.6935 56.7899 60.3365 55.8879C61.0205 54.9639 61.7015 54.0169 62.1265 52.9479C62.6075 51.7239 62.7555 50.3319 63.5925 49.3159C63.6865 49.1839 63.8185 49.0819 63.9705 49.0229C64.4475 48.8749 64.8025 49.4669 64.8945 49.9569C65.3425 52.3569 64.2745 54.7509 63.2365 56.9639C62.8945 57.6939 62.5365 58.4429 61.9425 58.9949C61.6175 59.2709 61.2775 59.5289 60.9245 59.7689C60.4005 60.1909 59.9175 60.6619 59.4845 61.1749C58.7375 62.0149 58.0285 62.8849 57.3545 63.7849C56.5205 64.8929 55.7375 66.0549 54.7485 67.0329C53.7585 68.0109 52.5215 68.8069 51.1365 68.9999C51.5325 68.9469 51.4025 66.6429 51.3605 66.3519C51.3005 65.9319 51.0085 65.4339 51.0005 65.0219C50.9885 64.5159 51.1965 64.4429 51.6175 64.0879L56.5005 59.9839Z" fill="#EFB7B9"/>
<path id="Vector_13" opacity="0.1" d="M44.0003 61.6571L43.9853 61.6851C43.6033 62.3811 43.0323 62.9651 42.6393 63.6591C42.1993 64.4441 41.9933 65.3391 41.8173 66.2211C41.6953 66.8131 41.5823 67.4061 41.4793 68.0001C40.6873 67.5541 39.9223 67.0641 39.1863 66.5331C37.6053 65.3391 36.3813 63.7551 35.2433 62.1441C34.3613 60.9111 33.5233 59.6181 33.1633 58.1591C32.8033 56.7011 33.0133 55.0231 34.0453 53.9221C34.4843 53.4361 35.0853 53.1201 35.7393 53.0321C37.5833 52.8391 38.7473 53.5391 40.0093 54.8721C41.2693 56.2041 42.0503 57.9051 42.8553 59.5391C43.2133 60.2491 43.5793 60.9741 44.0003 61.6571Z" fill="black"/>
<path id="Vector_14" d="M37.753 53.0319C37.096 53.1219 36.493 53.4409 36.053 53.9339C35.009 55.0509 34.801 56.7509 35.168 58.2339C35.535 59.7159 36.378 61.0289 37.255 62.2809C38.396 63.9129 39.625 65.5209 41.211 66.7319C42.069 67.3499 42.96 67.9219 43.879 68.4459C45.407 69.3809 46.875 69.0899 48.276 70.2059C48.583 70.4819 48.934 70.7049 49.316 70.8659C49.644 70.9669 49.987 71.0119 50.331 70.9969C51.493 70.9849 52.638 70.2799 53.685 69.7809C53.784 69.7429 53.87 69.6809 53.938 69.6009C54.017 69.4309 54.021 69.2349 53.948 69.0609C53.325 66.5539 54.528 65.4699 53.334 63.1779C52.034 63.5979 50.61 64.0579 49.311 64.4669C49.112 64.5469 48.897 64.5829 48.683 64.5719C48.425 64.5189 48.19 64.3919 48.006 64.2049C46.599 62.9949 45.711 61.3109 44.908 59.6449C44.105 57.9809 43.318 56.2629 42.052 54.9079C40.786 53.5529 39.603 52.8359 37.753 53.0319Z" fill="#E6E6E6"/>
<path id="Vector_15" d="M50.0001 37.5971C47.3941 34.6071 44.4551 33.1761 40.9321 34.4891C35.2791 32.5671 27.8481 45.7741 32.4231 50.5641L40.1731 51.2181L42.5451 46.8911L41.7051 51.3731L47.9051 52.0001C44.7421 47.0201 45.7561 42.2341 50.0001 37.5971Z" fill="#2F2E41"/>
<path id="Vector_16" d="M77.5 58C80.5376 58 83 55.5376 83 52.5C83 49.4624 80.5376 47 77.5 47C74.4624 47 72 49.4624 72 52.5C72 55.5376 74.4624 58 77.5 58Z" fill="white"/>
<path id="Vector_17" d="M90.644 51C90.287 51.01 90 51.454 90 52C90 52.546 90.287 52.99 90.644 53H108.334C108.696 53.009 108.994 52.569 109 52.016C109.006 51.464 108.717 51.009 108.356 51H90.644ZM90.635 47C90.283 47.01 90 47.454 90 48C90 48.546 90.283 48.99 90.635 49H99.344C99.701 49.008 99.994 48.568 100 48.016C100.006 47.465 99.722 47.01 99.365 47H90.635ZM90.644 55C90.287 55.01 90 55.454 90 56C90 56.546 90.287 56.99 90.644 57H108.334C108.568 57.006 108.786 56.82 108.907 56.514C109.027 56.208 109.031 55.826 108.917 55.514C108.804 55.202 108.589 55.006 108.355 55H90.644Z" fill="white"/>
<path id="Vector_18" d="M95.5 75C96.3284 75 97 74.3284 97 73.5C97 72.6716 96.3284 72 95.5 72C94.6716 72 94 72.6716 94 73.5C94 74.3284 94.6716 75 95.5 75Z" fill="#E6E6E6"/>
<path id="Vector_19" d="M101.74 72C101.33 72.01 101 72.454 101 73C101 73.546 101.33 73.99 101.74 74H137.238C137.652 74.007 137.993 73.567 138 73.016C138.007 72.466 137.677 72.012 137.263 72H101.74Z" fill="#E6E6E6"/>
<path id="Vector_20" d="M95.5 82C96.3284 82 97 81.3284 97 80.5C97 79.6716 96.3284 79 95.5 79C94.6716 79 94 79.6716 94 80.5C94 81.3284 94.6716 82 95.5 82Z" fill="#E6E6E6"/>
<path id="Vector_21" d="M101.74 79C101.33 79.01 101 79.454 101 80C101 80.546 101.33 80.99 101.74 81H137.238C137.652 81.007 137.993 80.567 138 80.016C138.007 79.466 137.677 79.011 137.262 79H101.74Z" fill="#E6E6E6"/>
<path id="Vector_22" d="M95.5 89C96.3284 89 97 88.3284 97 87.5C97 86.6716 96.3284 86 95.5 86C94.6716 86 94 86.6716 94 87.5C94 88.3284 94.6716 89 95.5 89Z" fill="#E6E6E6"/>
<path id="Vector_23" d="M101.74 86C101.33 86.01 101 86.454 101 87C101 87.546 101.33 87.99 101.74 88H137.238C137.652 88.007 137.993 87.567 138 87.016C138.007 86.466 137.677 86.011 137.262 86H101.74Z" fill="#E6E6E6"/>
<path id="Vector_24" d="M95.5 95C96.3284 95 97 94.3284 97 93.5C97 92.6716 96.3284 92 95.5 92C94.6716 92 94 92.6716 94 93.5C94 94.3284 94.6716 95 95.5 95Z" fill="#E6E6E6"/>
<path id="Vector_25" d="M101.74 94C101.33 94.01 101 94.454 101 95C101 95.546 101.33 95.99 101.74 96H137.232C137.502 96.007 137.753 95.822 137.892 95.515C138.032 95.208 138.036 94.826 137.905 94.513C137.773 94.2 137.526 94.004 137.256 94H101.74ZM164 105.066C163.967 105.822 163.144 121.437 151.855 129.969C151.383 130.326 150.893 130.669 150.384 131L150 130.652H150.223C150.771 130.652 151.216 130.238 151.216 129.729V98.951C151.452 97.771 151.674 96.61 151.877 95.481C152.978 89.341 153.487 84.155 152.663 82C153.02 82.832 160.194 99.855 156.298 117.2C160.157 112.29 163.819 107.137 164 105.066Z" fill="#E6E6E6"/>
</g>
</g>
</g>
</g>
</g>
</g>
</g>
</g>
</g>
<defs>
<clipPath id="clip0_1_5739">
<rect width="171" height="95" fill="white"/>
</clipPath>
</defs>
</svg>
