<svg width="16" height="19" viewBox="0 0 16 19" fill="none" xmlns="http://www.w3.org/2000/svg">
<g id="Icon">
<path id="Vector" d="M0.312917 1.93581H13.4554C13.5389 1.93581 13.6119 1.9671 13.6745 2.02969C13.737 2.09227 13.7683 2.16528 13.7683 2.24873V16.6429C13.7683 16.7263 13.737 16.7994 13.6745 16.8619C13.6119 16.9245 13.5389 16.9558 13.4554 16.9558H0.312917C0.229472 16.9558 0.156458 16.9245 0.093875 16.8619C0.0312917 16.7994 0 16.7263 0 16.6429V2.24873C0 2.16528 0.0312917 2.09227 0.093875 2.02969C0.156458 1.9671 0.229472 1.93581 0.312917 1.93581ZM12.2037 4.43914H1.56458C1.48114 4.43914 1.40812 4.47044 1.34554 4.53302C1.28296 4.5956 1.25167 4.66862 1.25167 4.75206V15.3912C1.25167 15.4747 1.28296 15.5477 1.34554 15.6103C1.40812 15.6729 1.48114 15.7041 1.56458 15.7041H12.2037C12.2872 15.7041 12.3602 15.6729 12.4228 15.6103C12.4854 15.5477 12.5167 15.4747 12.5167 15.3912V4.75206C12.5167 4.66862 12.4854 4.5956 12.4228 4.53302C12.3602 4.47044 12.2872 4.43914 12.2037 4.43914ZM2.81625 5.69081H3.44208C3.52553 5.69081 3.59854 5.7221 3.66112 5.78469C3.72371 5.84727 3.755 5.92028 3.755 6.00373V6.62956C3.755 6.71301 3.72371 6.78602 3.66112 6.8486C3.59854 6.91119 3.52553 6.94248 3.44208 6.94248H2.81625C2.73281 6.94248 2.65979 6.91119 2.59721 6.8486C2.53462 6.78602 2.50333 6.71301 2.50333 6.62956V6.00373C2.50333 5.92028 2.53462 5.84727 2.59721 5.78469C2.65979 5.7221 2.73281 5.69081 2.81625 5.69081ZM5.31958 5.69081H10.9521C11.0355 5.69081 11.1085 5.7221 11.1711 5.78469C11.2337 5.84727 11.265 5.92028 11.265 6.00373V6.62956C11.265 6.71301 11.2337 6.78602 11.1711 6.8486C11.1085 6.91119 11.0355 6.94248 10.9521 6.94248H5.31958C5.23614 6.94248 5.16313 6.91119 5.10054 6.8486C5.03796 6.78602 5.00667 6.71301 5.00667 6.62956V6.00373C5.00667 5.92028 5.03796 5.84727 5.10054 5.78469C5.16313 5.7221 5.23614 5.69081 5.31958 5.69081ZM2.81625 8.19414H3.44208C3.52553 8.19414 3.59854 8.22544 3.66112 8.28802C3.72371 8.3506 3.755 8.42362 3.755 8.50706V9.13289C3.755 9.21634 3.72371 9.28935 3.66112 9.35194C3.59854 9.41452 3.52553 9.44581 3.44208 9.44581H2.81625C2.73281 9.44581 2.65979 9.41452 2.59721 9.35194C2.53462 9.28935 2.50333 9.21634 2.50333 9.13289V8.50706C2.50333 8.42362 2.53462 8.3506 2.59721 8.28802C2.65979 8.22544 2.73281 8.19414 2.81625 8.19414ZM5.31958 8.19414H10.9521C11.0355 8.19414 11.1085 8.22544 11.1711 8.28802C11.2337 8.3506 11.265 8.42362 11.265 8.50706V9.13289C11.265 9.21634 11.2337 9.28935 11.1711 9.35194C11.1085 9.41452 11.0355 9.44581 10.9521 9.44581H5.31958C5.23614 9.44581 5.16313 9.41452 5.10054 9.35194C5.03796 9.28935 5.00667 9.21634 5.00667 9.13289V8.50706C5.00667 8.42362 5.03796 8.3506 5.10054 8.28802C5.16313 8.22544 5.23614 8.19414 5.31958 8.19414ZM2.81625 10.6975H3.44208C3.52553 10.6975 3.59854 10.7288 3.66112 10.7914C3.72371 10.8539 3.755 10.9269 3.755 11.0104V11.6362C3.755 11.7197 3.72371 11.7927 3.66112 11.8553C3.59854 11.9179 3.52553 11.9491 3.44208 11.9491H2.81625C2.73281 11.9491 2.65979 11.9179 2.59721 11.8553C2.53462 11.7927 2.50333 11.7197 2.50333 11.6362V11.0104C2.50333 10.9269 2.53462 10.8539 2.59721 10.7914C2.65979 10.7288 2.73281 10.6975 2.81625 10.6975ZM5.31958 10.6975H10.9521C11.0355 10.6975 11.1085 10.7288 11.1711 10.7914C11.2337 10.8539 11.265 10.9269 11.265 11.0104V11.6362C11.265 11.7197 11.2337 11.7927 11.1711 11.8553C11.1085 11.9179 11.0355 11.9491 10.9521 11.9491H5.31958C5.23614 11.9491 5.16313 11.9179 5.10054 11.8553C5.03796 11.7927 5.00667 11.7197 5.00667 11.6362V11.0104C5.00667 10.9269 5.03796 10.8539 5.10054 10.7914C5.16313 10.7288 5.23614 10.6975 5.31958 10.6975ZM2.81625 13.2008H3.44208C3.52553 13.2008 3.59854 13.2321 3.66112 13.2947C3.72371 13.3573 3.755 13.4303 3.755 13.5137V14.1396C3.755 14.223 3.72371 14.296 3.66112 14.3586C3.59854 14.4212 3.52553 14.4525 3.44208 14.4525H2.81625C2.73281 14.4525 2.65979 14.4212 2.59721 14.3586C2.53462 14.296 2.50333 14.223 2.50333 14.1396V13.5137C2.50333 13.4303 2.53462 13.3573 2.59721 13.2947C2.65979 13.2321 2.73281 13.2008 2.81625 13.2008ZM5.31958 13.2008H10.9521C11.0355 13.2008 11.1085 13.2321 11.1711 13.2947C11.2337 13.3573 11.265 13.4303 11.265 13.5137V14.1396C11.265 14.223 11.2337 14.296 11.1711 14.3586C11.1085 14.4212 11.0355 14.4525 10.9521 14.4525H5.31958C5.23614 14.4525 5.16313 14.4212 5.10054 14.3586C5.03796 14.296 5.00667 14.223 5.00667 14.1396V13.5137C5.00667 13.4303 5.03796 13.3573 5.10054 13.2947C5.16313 13.2321 5.23614 13.2008 5.31958 13.2008Z" fill="#333333"/>
</g>
</svg>
