<svg width="11" height="11" viewBox="0 0 11 11" fill="none" xmlns="http://www.w3.org/2000/svg">
<g id="SVG">
<g id="time">
<path id="Vector" d="M5.17718 2.08021C6.98614 2.08021 8.45799 3.55206 8.45799 5.36102C8.45799 7.16998 6.98614 8.64183 5.17718 8.64183C3.36823 8.64183 1.89637 7.16998 1.89637 5.36102C1.89637 3.55206 3.36823 2.08021 5.17718 2.08021ZM5.17718 1.26001C2.91219 1.26001 1.07617 3.09603 1.07617 5.36102C1.07617 7.62601 2.91219 9.46203 5.17718 9.46203C7.44217 9.46203 9.27819 7.62601 9.27819 5.36102C9.27819 3.09603 7.44217 1.26001 5.17718 1.26001ZM6.73557 6.75536L5.58728 5.22446V3.31051H4.76708V5.49758L6.0794 7.24707L6.73557 6.75536Z" fill="#87A6BC"/>
</g>
</g>
</svg>
