<svg width="15" height="16" viewBox="0 0 15 16" fill="none" xmlns="http://www.w3.org/2000/svg">
<g id="Section &#226;&#134;&#146; List &#226;&#134;&#146; Item &#226;&#134;&#146; Link" clip-path="url(#clip0_1_5855)">
<path id="Vector" d="M13.5533 3.99383C13.1794 4.5407 12.7274 5.00666 12.1973 5.39171C12.2028 5.46983 12.2056 5.58702 12.2056 5.74327C12.2056 6.46872 12.0996 7.19277 11.8876 7.91542C11.6755 8.63808 11.3532 9.33144 10.9208 9.9955C10.4883 10.6596 9.97349 11.2469 9.3764 11.7575C8.7793 12.2681 8.05943 12.6755 7.2168 12.9796C6.37416 13.2837 5.47294 13.4358 4.51311 13.4358C3.00084 13.4358 1.61691 13.0312 0.361328 12.2221C0.556641 12.2444 0.774275 12.2555 1.01423 12.2555C2.26981 12.2555 3.38867 11.8705 4.37081 11.1004C3.78488 11.0893 3.26032 10.9093 2.79715 10.5605C2.33398 10.2117 2.0159 9.76671 1.84291 9.22541C2.02706 9.25331 2.19727 9.26726 2.35352 9.26726C2.59347 9.26726 2.83064 9.23657 3.06501 9.17519C2.44001 9.04684 1.92243 8.73574 1.51228 8.24187C1.10212 7.74801 0.897042 7.17463 0.897042 6.52173V6.48825C1.27651 6.7003 1.68387 6.8147 2.11914 6.83144C1.75084 6.5859 1.45787 6.26503 1.24023 5.86883C1.0226 5.47262 0.913783 5.04293 0.913783 4.57976C0.913783 4.08869 1.03655 3.63389 1.28209 3.21537C1.95731 4.04684 2.77902 4.7123 3.74721 5.21174C4.7154 5.71118 5.75195 5.9888 6.85686 6.04461C6.81222 5.83255 6.7899 5.62608 6.7899 5.42519C6.7899 4.67742 7.05357 4.03986 7.58091 3.51252C8.10826 2.98518 8.74581 2.72151 9.49358 2.72151C10.2748 2.72151 10.9333 3.0061 11.469 3.5753C12.0773 3.45811 12.6493 3.24048 13.185 2.9224C12.9785 3.56414 12.5823 4.06079 11.9964 4.41235C12.5153 4.35655 13.0343 4.21704 13.5533 3.99383Z" fill="black"/>
</g>
<defs>
<clipPath id="clip0_1_5855">
<rect width="13.94" height="15" fill="white" transform="matrix(1 0 0 -1 0.355469 15.5786)"/>
</clipPath>
</defs>
</svg>
