<svg width="14" height="15" viewBox="0 0 14 15" fill="none" xmlns="http://www.w3.org/2000/svg">
<g id="Section &#226;&#134;&#146; List &#226;&#134;&#146; Item &#226;&#134;&#146; Link" clip-path="url(#clip0_1_5858)">
<path id="Vector" d="M8.25823 10.4115V12.1777C8.25823 12.5515 8.14941 12.7385 7.93178 12.7385C7.80343 12.7385 7.67787 12.6771 7.55511 12.5543V10.0348C7.67787 9.91204 7.80343 9.85066 7.93178 9.85066C8.14941 9.85066 8.25823 10.0376 8.25823 10.4115ZM11.0875 10.4199V10.8049H10.3341V10.4199C10.3341 10.0404 10.4597 9.85066 10.7108 9.85066C10.9619 9.85066 11.0875 10.0404 11.0875 10.4199ZM3.00153 8.59508H3.89718V7.80825H1.28557V8.59508H2.16448V13.3579H3.00153V8.59508ZM5.41225 13.3579H6.15723V9.22287H5.41225V12.3869C5.24484 12.6213 5.0858 12.7385 4.93513 12.7385C4.83468 12.7385 4.77609 12.6799 4.75935 12.5627C4.75377 12.546 4.75098 12.4483 4.75098 12.2697V9.22287H4.006V12.4957C4.006 12.7692 4.02832 12.9729 4.07296 13.1068C4.13993 13.3133 4.30176 13.4165 4.55845 13.4165C4.82631 13.4165 5.11091 13.2463 5.41225 12.9059V13.3579ZM9.00321 12.1191V10.4701C9.00321 10.0627 8.9781 9.78648 8.92787 9.64139C8.83301 9.32889 8.6349 9.17264 8.33357 9.17264C8.05455 9.17264 7.79506 9.32331 7.55511 9.62465V7.80825H6.81013V13.3579H7.55511V12.9561C7.80622 13.263 8.06571 13.4165 8.33357 13.4165C8.6349 13.4165 8.83301 13.263 8.92787 12.9561C8.9781 12.8055 9.00321 12.5264 9.00321 12.1191ZM11.8324 12.0354V11.9265H11.0707C11.0707 12.2111 11.0652 12.3813 11.054 12.4372C11.0149 12.638 10.9033 12.7385 10.7192 12.7385C10.4625 12.7385 10.3341 12.546 10.3341 12.1609V11.4327H11.8324V10.5705C11.8324 10.1297 11.7571 9.80601 11.6064 9.59954C11.3888 9.31494 11.0931 9.17264 10.7192 9.17264C10.3397 9.17264 10.0412 9.31494 9.82352 9.59954C9.66727 9.80601 9.58915 10.1297 9.58915 10.5705V12.0186C9.58915 12.4595 9.67006 12.7831 9.83189 12.9896C10.0495 13.2742 10.3509 13.4165 10.7359 13.4165C11.1377 13.4165 11.439 13.2686 11.6399 12.9729C11.7404 12.8222 11.799 12.6715 11.8157 12.5209C11.8269 12.4706 11.8324 12.3088 11.8324 12.0354ZM6.74316 4.39307V2.63525C6.74316 2.25021 6.62319 2.05769 6.38323 2.05769C6.14328 2.05769 6.0233 2.25021 6.0233 2.63525V4.39307C6.0233 4.78369 6.14328 4.979 6.38323 4.979C6.62319 4.979 6.74316 4.78369 6.74316 4.39307ZM12.7616 10.6793C12.7616 11.9851 12.689 12.9617 12.5439 13.609C12.4658 13.9383 12.304 14.2145 12.0585 14.4377C11.8129 14.6609 11.5283 14.7893 11.2047 14.8228C10.1779 14.9399 8.62932 14.9985 6.55901 14.9985C4.4887 14.9985 2.94015 14.9399 1.91336 14.8228C1.5897 14.7893 1.30371 14.6609 1.05538 14.4377C0.807059 14.2145 0.646624 13.9383 0.574079 13.609C0.42899 12.984 0.356445 12.0075 0.356445 10.6793C0.356445 9.37354 0.42899 8.39697 0.574079 7.74965C0.652204 7.42041 0.814035 7.14418 1.05957 6.92097C1.30511 6.69775 1.59249 6.56662 1.92174 6.52755C2.94294 6.41595 4.4887 6.36014 6.55901 6.36014C8.62932 6.36014 10.1779 6.41595 11.2047 6.52755C11.5283 6.56662 11.8143 6.69775 12.0626 6.92097C12.311 7.14418 12.4714 7.42041 12.5439 7.74965C12.689 8.37465 12.7616 9.35121 12.7616 10.6793ZM4.40778 -0.00146484H5.26158L4.24874 3.33838V5.60679H3.41169V3.33838C3.33357 2.92543 3.16336 2.33391 2.90109 1.56383C2.69461 0.989049 2.51325 0.467285 2.357 -0.00146484H3.24428L3.83859 2.19999L4.40778 -0.00146484ZM7.50488 2.78592V4.25077C7.50488 4.70278 7.42676 5.03202 7.27051 5.23849C7.06403 5.52309 6.76828 5.66539 6.38323 5.66539C6.00935 5.66539 5.71638 5.52309 5.50432 5.23849C5.34807 5.02644 5.26995 4.6972 5.26995 4.25077V2.78592C5.26995 2.3395 5.34807 2.01304 5.50432 1.80657C5.71638 1.52197 6.00935 1.37967 6.38323 1.37967C6.76828 1.37967 7.06403 1.52197 7.27051 1.80657C7.42676 2.01304 7.50488 2.3395 7.50488 2.78592ZM10.309 1.4299V5.60679H9.54729V5.14641C9.25153 5.4924 8.96415 5.66539 8.68513 5.66539C8.42843 5.66539 8.26381 5.56215 8.19127 5.35568C8.14662 5.22175 8.1243 5.01249 8.1243 4.72789V1.4299H8.88602V4.50188C8.88602 4.68604 8.88881 4.78369 8.89439 4.79485C8.91113 4.91762 8.96973 4.979 9.07017 4.979C9.22084 4.979 9.37988 4.85903 9.54729 4.61907V1.4299H10.309Z" fill="black"/>
</g>
<defs>
<clipPath id="clip0_1_5858">
<rect width="12.86" height="15" fill="white" transform="matrix(1 0 0 -1 0.355469 14.9985)"/>
</clipPath>
</defs>
</svg>
